<svg xmlns="http://www.w3.org/2000/svg" viewBox="0 0 128.6 82.57"><defs><style>.cls-1{fill:#5c2f21;}.cls-2{fill:#9b970b;}</style></defs><title>Asset 4</title><g id="Layer_2" data-name="Layer 2"><g id="Layer_1-2" data-name="Layer 1"><path class="cls-1" d="M83.23,48.09c-21.29,1.06-51.92-2.65-69.58-17.9A37.69,37.69,0,0,1,0,0H1A36.82,36.82,0,0,0,14.27,29.46C35,47.37,74,49.16,94,46.07a1.25,1.25,0,0,0-.38-.94c-.44-.41-1.53-.77-4.27-.25l-.18-.94c2.55-.49,4.21-.34,5.1.48a2.37,2.37,0,0,1,.67,2.12l0,.36-.37.06A105.17,105.17,0,0,1,83.23,48.09Z"/><path class="cls-2" d="M42.75,46.73C65.66,108.44,147.66,80.9,124.53,35.9c-4.72-9.18-71.9,7.49-85.87,7a73.93,73.93,0,0,0,13.06,5.6Z"/></g></g></svg>