<svg xmlns="http://www.w3.org/2000/svg" viewBox="0 0 188.68 148.2"><defs><style>.cls-1{fill:#4f3b29;}.cls-2{fill:#ec693d;}.cls-3{fill:#23a38f;}.cls-4{fill:#fff;}.cls-5{fill:#e8692e;}.cls-6{fill:#5c2f21;}.cls-7{fill:#fcfbaa;}</style></defs><title>Asset 11</title><g id="Layer_2" data-name="Layer 2"><g id="Layer_1-2" data-name="Layer 1"><path class="cls-1" d="M104.25,148.2c-2-10.15-.58-21.38.76-32.25,1.53-12.41,3-24.12-.68-32.95l1.92-.79c3.86,9.33,2.38,21.31.81,34-1.32,10.71-2.68,21.78-.77,31.61Z"/><path class="cls-1" d="M124.14,142.51c-.06-1.45-1.36-35.59-.48-55.71l2.07.09c-.87,20,.42,54.1.48,55.54Z"/><path class="cls-2" d="M188.68,57.57C184.16,65.9,176,73.3,166.17,79.24a111.06,111.06,0,0,1-26.08,11.29c-2.16.63-4.32,1.18-6.47,1.67-9.77,2.21-19.32,3-27.39,1.88a42.72,42.72,0,0,1-11.46-3.94c-2.23-1.06-4.6-2.29-7-3.67l-2.36-1.36L85.26,85A147.16,147.16,0,0,1,68.8,73.66c-1.93-1.54-3.8-3.12-5.59-4.74C52.2,59,44.46,48,47.47,39.62l-4.1,3.7c-6.52-7.81,4.49-23.9,20.89-25.25,11.9-1,22.2,9.09,31.94,17.3,1.65,1.39,3.28,2.73,4.9,3.94a48.34,48.34,0,0,0,4.46,3,124.18,124.18,0,0,0,50.88,17.1A100.17,100.17,0,0,0,188.68,57.57Z"/><path class="cls-1" d="M64.29,49.85,55,39.58c-1,.25-2,.49-3,.71l1.82-9.85C39.84,27.05,23.14,16.82,12,7.5,17.54,15.79,32.26,34.57,42.2,42,28.89,43.8,13.31,44.56,0,47.42c19.71,6.31,41.19,3.85,60.74,13Q66.14,57,64.29,49.85Z"/><path class="cls-3" d="M102.38,64.92C93.57,29,140.17,9,170.39,0c7.71,18.59-5.39,48.51-21.81,60-9.17,6.4-20,7.14-30.05,9A19.48,19.48,0,0,1,102.38,64.92Z"/><path class="cls-4" d="M52.91,26.68c-15.62,12.41,11.64,42,27.74,25.56C98.53,34,61.09,12,52.91,26.68Z"/><path class="cls-5" d="M188.68,57.57C184.16,65.9,176,73.3,166.17,79.24c-6.18-5.13-10.06-12.39-9.73-19.79A100.17,100.17,0,0,0,188.68,57.57Z"/><path class="cls-6" d="M64.93,37.6l3,.83c-2.48-2.28-4.34-3.09-5.69-3a11,11,0,0,0-5.07,0l3.21.89c-2.21,2.52-1,9.24,1.18,7.89C64.43,42.52,65.73,39.65,64.93,37.6Z"/><path class="cls-7" d="M82.66,66.72l1.07-.64c-3.15,2-.14,6.31,2.92,3.7C90.67,66.33,85.53,63,82.66,66.72Z"/><path class="cls-7" d="M106.59,78.63l1-.29c-2.31,4.34,3.77,6.64,5.77,2.29S107.38,74.2,106.59,78.63Z"/><path class="cls-7" d="M101.1,39.31a3.65,3.65,0,0,1-3,1.62c-3,.15-3.09-3.21-1.91-5.56C97.85,36.76,99.48,38.1,101.1,39.31Z"/><path class="cls-7" d="M138.12,70.93a5.81,5.81,0,0,0-.58.73l.49-.08a3.07,3.07,0,0,0-.63.29,8.39,8.39,0,0,0-.84,1.79,3.35,3.35,0,0,0,4.39,1.9C144.89,73.92,141.81,70.71,138.12,70.93Z"/><path class="cls-7" d="M137.34,87.79A9.06,9.06,0,0,0,134,89.67a8,8,0,0,0-.36,2.53c2.15-.49,4.31-1,6.47-1.67a.56.56,0,0,0,0-.12A4.73,4.73,0,0,0,137.34,87.79Z"/><path class="cls-7" d="M69.46,65.47a10.11,10.11,0,0,0-2.62.36,12.35,12.35,0,0,0-2.92,1.06,4.42,4.42,0,0,0-.71,2l5.59,4.74.32-.07C73.57,72.47,72.42,67.49,69.46,65.47Z"/><path class="cls-7" d="M93.91,83.79a8.54,8.54,0,0,0-5.26,1.41,5.38,5.38,0,0,0-.92,1.27c2.44,1.38,4.81,2.61,7,3.67A4.55,4.55,0,0,0,93.91,83.79Z"/><path class="cls-7" d="M155.19,73.41c-.78.84-1.38,2.23.26,2.18,1.81,0,1.61-1.32.81-2.28A9.67,9.67,0,0,0,155.19,73.41Z"/></g></g></svg>