<svg xmlns="http://www.w3.org/2000/svg" viewBox="0 0 62.29 117.64"><defs><style>.cls-1{fill:#ecb814;}.cls-2{fill:#735232;}</style></defs><title>Asset 9</title><g id="Layer_2" data-name="Layer 2"><g id="Layer_1-2" data-name="Layer 1"><path class="cls-1" d="M28.49,35.65C27,65.22-13.47,58.9,4.66,26.12,15.74,6.1,40.62-2.19,62.29.49,56.92,18.31,66.73,40,53.83,55.8,29.9,85.11,14.16,42.55,30.39,40Z"/><path class="cls-2" d="M28.32,31.23c-4.94,11.75-15.68,70.68-4,83.82a7.45,7.45,0,0,0,8,2.25l-.23-.89a6.49,6.49,0,0,1-7.08-2c-4.75-5.34-6.17-20.08-4-41.5,1.8-17.83,5.64-35.36,8.16-41.37Z"/></g></g></svg>