<svg xmlns="http://www.w3.org/2000/svg" viewBox="0 0 206.73 141.92"><defs><style>.cls-1{fill:#f19a2c;}.cls-2{fill:#f07d65;}.cls-3{fill:#1d3130;}.cls-4{fill:#ec693d;}</style></defs><title>Asset 14</title><g id="Layer_2" data-name="Layer 2"><g id="Layer_1-2" data-name="Layer 1"><path class="cls-1" d="M147.06,82.66c6.68,5.18,44.3-.87,59.67-1.51-10.9,15.63-53.18,15.07-62.6,6.21Z"/><path class="cls-1" d="M141,94.53c17.52-4.87,52.31,1.1,64.95,15.65-22.32,1.28-56.77-7.93-76.71-16.89,2.27.31,4.54.57,6.83.77Z"/><path class="cls-2" d="M27.15,61.39A99.49,99.49,0,0,0,0,67c9.57,8,21.94,8.17,31.61-.19Z"/><path class="cls-3" d="M61.67,64.65c-.35-35.77-53.32-22.9-33.84,21.69,12.75,29.17,48.08,41,78.27,34.87,30.38-6.13,66.1-43.2,31.2-66.9-11.19-7.6-29.21-6.93-41.7-6.37-10,.46-46.33,11.29-33.93,16.71Z"/><path class="cls-4" d="M98.51,16.43C119.29-4.74,156-9.22,128.42,25.78c3.12-1.32,10.75-1.41,14.58-3-1.77,5.19.16,10.21-6,16.46,3.68-1.78,9.26-2.12,12.12-3.31-1.88,5.63,1.68,9.57-5.87,16.11C175,70.8,59.86,118.42,63,77.21,63,77.21,81.27,34,98.51,16.43Z"/><path class="cls-3" d="M79.11,141.14c-1.8-2.57-2.36-13.75-.42-22.67l.58.13c-1.86,8.55-1.39,19.75.33,22.2Z"/><rect class="cls-3" x="79.12" y="130.5" width="22.3" height="0.59" transform="translate(-48.35 208.53) rotate(-84.67)"/></g></g></svg>