<svg xmlns="http://www.w3.org/2000/svg" viewBox="0 0 124.22 128.52"><defs><style>.cls-1{fill:#734a19;}.cls-2{fill:#d97236;}</style></defs><title>Asset 5</title><g id="Layer_2" data-name="Layer 2"><g id="Layer_1-2" data-name="Layer 1"><path class="cls-1" d="M47.11,83.71C69.48,78,100.52,63.53,115.55,39.85A53,53,0,0,0,123.12,0l-1,.33a51.65,51.65,0,0,1-7.39,38.88C97.08,67,57,81.92,35.49,84.89a1.8,1.8,0,0,1,.19-1.24C36,83,37.1,82.25,40.06,82V80.8c-2.76.26-4.46,1-5.2,2.24a3.27,3.27,0,0,0-.24,2.7l.12.42.39-.06A101.23,101.23,0,0,0,47.11,83.71Z"/><path class="cls-2" d="M88.9,68.8C78.6,148.63-12.7,143.34,1.49,83,4.39,70.71,77.9,68.14,92.31,63A86.49,86.49,0,0,1,80,73.82Z"/></g></g></svg>