<svg xmlns="http://www.w3.org/2000/svg" viewBox="0 0 101.39 153.69"><defs><style>.cls-1{fill:#f19a2c;}.cls-2{fill:#734a19;}</style></defs><title>Asset 7</title><g id="Layer_2" data-name="Layer 2"><g id="Layer_1-2" data-name="Layer 1"><path class="cls-1" d="M59.64,111.9c13.73-39.37,65.93-14.78,28.43,22.34C65.16,156.91,28.23,158.25,0,146c14.32-22,9.66-55.16,33.37-71.41,44-30.14,48.38,33.65,25.42,30.67Z"/><path class="cls-2" d="M58.12,118C69.45,104,107.34,28.62,96.78,6.23c-1.9-4-5.24-6.11-10-6.23l0,1.3c4.23.11,7.11,1.9,8.79,5.48,4.3,9.1.38,29.59-11,57.7C75,87.86,62.88,110,57.08,117.16Z"/></g></g></svg>